<svg width="377.91574" xmlns="http://www.w3.org/2000/svg" height="369.67596" xmlns:xlink="http://www.w3.org/1999/xlink">
<defs>
<linearGradient xlink:href="#linearGradient4098" id="linearGradient3335" y1="Infinity" y2="Infinity" x1="2.561409" x2="2.561407"/>
<linearGradient xlink:href="#linearGradient4098" id="linearGradient3333" y1="Infinity" y2="Infinity" x1="1.964918" x2="1.964916"/>
<linearGradient xlink:href="#linearGradient4098" id="linearGradient3337" y1="Infinity" y2="Infinity" x1="1.350883" x2="1.350881"/>
<linearGradient xlink:href="#linearGradient4098" id="linearGradient3331" y1="Infinity" y2="Infinity" x1="-1.350871" x2="-1.350873"/>
<linearGradient xlink:href="#linearGradient4098" id="linearGradient3329" y1="Infinity" y2="Infinity" x1="-0.140346" x2="-0.140348"/>
<linearGradient id="linearGradient4098">
<stop offset="0" style="stop-color:#ffb142" id="stop4100"/>
<stop offset="1" style="stop-color:#c87600" id="stop4104"/>
</linearGradient>
<linearGradient xlink:href="#linearGradient4098" id="linearGradient3327" y1="Infinity" y2="Infinity" x1="-0.736836" x2="-0.736838"/>
<linearGradient xlink:href="#linearGradient4098" id="linearGradient3211" y1="0.634575" y2="0.634575" x1="0.440936" x2="0.666877"/>
</defs>
<g>
<g id="svg_63" externalResourcesRequired="false">
<g style="stroke-linecap:round">
<g style="stroke:#000;stroke-linejoin:round;stroke-width:2.869">
<path style="fill:url(#linearGradient3337)" id="svg_65" d="m 184.4326,342.3253 a 13.8849,22.3944 0 1,1 -27.7698,0 13.8849,22.3944 0 1,1 27.7698,0 z "/>
<path style="fill:url(#linearGradient3335)" id="svg_66" d="m 150.8166,342.3253 a 13.8849,22.3944 0 1,1 -27.7698,0 13.8849,22.3944 0 1,1 27.7698,0 z "/>
<path style="fill:url(#linearGradient3333)" id="svg_67" d="m 167.381,342.3253 a 13.8849,22.3944 0 1,1 -27.7698,0 13.8849,22.3944 0 1,1 27.7698,0 z "/>
<path style="fill:url(#linearGradient3331)" id="svg_68" d="m 259.4598,342.3253 a 13.8849,22.3944 0 1,1 -27.7698,0 13.8849,22.3944 0 1,1 27.7698,0 z "/>
<path style="fill:url(#linearGradient3329)" id="svg_69" d="m 225.8438,342.3253 a 13.8849,22.3944 0 1,1 -27.7698,0 13.8849,22.3944 0 1,1 27.7698,0 z "/>
<path style="fill:url(#linearGradient3327)" id="svg_70" d="m 242.4082,342.3253 a 13.8849,22.3944 0 1,1 -27.7698,0 13.8849,22.3944 0 1,1 27.7698,0 z "/>
</g>
<path style="fill-opacity:.314;stroke-width:6.429" id="svg_71" d="m 136.9317,319.9276 c -5.65764,0 -10.5041,5.47641 -12.6669,13.3133 18.485,4.93558 38.7941,7.81451 60.1375,8.20685 -0.290726,-11.949 -6.37524,-21.5201 -13.8545,-21.5201 -3.21632,0 -6.17104,1.77753 -8.52582,4.74173 -2.35478,-2.9642 -5.30948,-4.74173 -8.52582,-4.74173 -3.10416,0 -5.9691,1.6582 -8.28223,4.43777 -2.31313,-2.77957 -5.17807,-4.43777 -8.28221,-4.43777 z  m 75.0272,0 c -7.46004,0 -13.5348,9.5228 -13.8544,21.429 21.32,-0.685089 41.524,-3.87463 59.8634,-9.08832 -2.28705,-7.31015 -6.97372,-12.3406 -12.3929,-12.3406 -3.21634,0 -6.17105,1.77753 -8.52582,4.74173 -2.3548,-2.9642 -5.30948,-4.74173 -8.52582,-4.74173 -3.10416,0 -5.96912,1.6582 -8.28223,4.43777 -2.31314,-2.77957 -5.17807,-4.43777 -8.28221,-4.43777 z "/>
</g>
<g style="stroke-width:5">
<path style="fill:#784421;stroke:#000;stroke-linecap:round" id="svg_72" d="m 351.6674,168.0511 a 161.322,161.038 0 1,1 -322.645,0 161.322,161.038 0 1,1 322.645,0 z "/>
<path style="fill-rule:evenodd;fill-opacity:.314" id="svg_73" d="m 181.6231,131.1139 c -20.6423,0 -43.0796,22.4546 -42.1821,36.6365 0.897491,14.1818 36.7972,73.273 44.8746,73.273 8.07742,0 39.4896,-57.9092 38.5921,-74.4548 -0.897507,-16.5456 -27.8222,-36.6366 -41.2846,-35.4547 z "/>
<path style="fill:#fff;stroke-linejoin:round" id="svg_74" d="m 154.5526,89.6003 a 4.14111,4.13382 0 1,1 -8.28221,0 4.14111,4.13382 0 1,1 8.28221,0 z "/>
<path style="fill-opacity:.314" id="svg_75" d="m 18.7471,153.796 l 9.7849,-4.2058 10.7182,-1.9453 h 7.79503 6.82066 l 8.7694,4.8633"/>
<g style="fill:#fff">
<path id="svg_76" d="m 34.3372,158.6593 l .0411,-11.0145 2.9231,-11.6719 2.9231,-11.672 3.8975,-12.6446 5.8463,-13.6173 7.795,-16.5353 10.7182,-10.6993 9.7438,-12.6446 11.6926,-9.7266 12.6669,-9.7266 10.7182,-6.8086 11.6926,-5.836 15.5901,-6.8086 14.6157,-3.8906 10.7182,-1.9453 13.6413,-1.9453 h 13.6413 l 11.6926,.9727 11.6925,1.9453 12.6669,1.9453 8.7694,3.8906 11.6925,3.8907 9.7438,3.8907 9.7438,5.836 10.7182,3.8907 9.7438,6.8086 11.6925,9.7266 3.8975,6.8086 9.7438,10.6993 6.8206,7.7813 4.8719,8.754 4.8719,11.6719 4.8719,8.754 3.8975,9.7266 1.9488,11.6719 3.8975,11.672 .9744,10.6993 .9744,10.6993 -.9744,9.7266 -8.7694,1.9453 -7.795,1.9453 -2.9231,-1.9453 .9744,-2.918 -19.4876,-.9727 -113.028,-8.754 -107.1817,4.8633 -5.8463,-7.7813 -5.8463,-6.8086 -8.7694,-2.918 -11.6926,-.9727 -12.6669,.9727 -9.7848,9.0692 z "/>
<path style="stroke:#000;stroke-linecap:round" id="svg_77" d="m 147.4939,57.235 c -28.1485,0 -51.0108,23.4755 -51.0108,52.4005 0,28.9251 22.8624,52.4006 51.0108,52.4006 16.542,0 31.2214,-8.1163 40.5401,-20.6727 9.31807,12.5655 24.0294,20.6727 40.5785,20.6727 28.1484,0 51.0108,-23.4755 51.0108,-52.4006 0,-28.9251 -22.8624,-52.4005 -51.0108,-52.4005 -16.5471,0 -31.2602,8.10969 -40.5785,20.6727 -9.31889,-12.5537 -24.0002,-20.6727 -40.5401,-20.6727 z "/>
</g>
</g>
<g style="stroke:#000">
<g style="stroke-linecap:round;stroke-width:3.169">
<path id="svg_78" d="m 156.6349,97.3815 a 15.9673,15.9391 0 1,1 -31.9345,0 15.9673,15.9391 0 1,1 31.9345,0 z "/>
<path id="svg_79" d="m 159.5581,95.4362 a 15.9673,15.9391 0 1,1 -31.9345,0 15.9673,15.9391 0 1,1 31.9345,0 z "/>
</g>
<path style="fill:url(#linearGradient3211);fill-rule:evenodd;stroke-width:5" id="svg_80" d="m 181.4347,137.5127 c -15.0712,0 -31.4529,19.7776 -30.7976,32.2687 0.655273,12.4912 26.8661,64.5374 32.7634,64.5374 5.89743,0 28.8318,-51.0053 28.1765,-65.5783 -0.655212,-14.573 -20.3132,-32.2688 -30.1423,-31.2278 z "/>
<path style="stroke-linecap:round;stroke-width:3.169" id="svg_81" d="m 237.5084,100.5182 a 15.9673,15.9391 0 1,1 -31.9345,0 15.9673,15.9391 0 1,1 31.9345,0 z "/>
</g>
<g style="stroke-width:5">
<g style="fill:#fff;stroke-linejoin:round">
<path id="svg_82" d="m 152.6038,89.6003 a 4.14111,4.13382 0 1,1 -8.28223,0 4.14111,4.13382 0 1,1 8.28223,0 z "/>
<path id="svg_83" d="m 220.8104,89.6003 a 4.14111,4.13382 0 1,1 -8.28223,0 4.14111,4.13382 0 1,1 8.28223,0 z "/>
</g>
<g style="fill-rule:evenodd">
<path style="fill-opacity:.314" id="svg_86" d="m 329.601,96.6428 c 1.93024,9.95276 2.95334,20.2173 2.95334,30.7298 0,3.62804 -0.128632,7.22202 -0.365387,10.7907 -3.57791,-0.177994 -7.38385,0.018494 -11.4489,0.607925 -34.3128,7.29399 -19.6562,50.2516 -28.5922,95.1993 -29.5646,33.3905 -72.7949,54.4389 -120.914,54.4389 -29.5958,0 -57.3247,-7.98264 -81.1783,-21.8849 -23.0725,-53.9273 7.8689,-112.503 -32.794,-122.617 -44.9291,-8.09743 -62.3315,33.515 -33.2811,95.8685 16.0391,34.4264 42.6027,51.3371 62.1471,57.9035 27.6364,22.1767 62.7423,35.4419 100.94,35.4419 44.7717,0 85.3137,-18.2277 114.55,-47.6604 17.0068,-8.47967 35.9175,-23.9226 49.0541,-49.7585 24.566,-48.3131 19.8627,-84.6975 -5.32889,-94.7733 -3.08881,-15.6949 -8.44397,-30.5825 -15.7421,-44.2868 z "/>
<path style="fill:#784421;stroke:#000" id="svg_84" d="m 314.0261,144.3964 c -46.8785,16.8271 13.8005,91.569 -36.8502,156.785 -9.36221,12.0545 56.3853,2.0336 79.629,-64.7647 22.6039,-64.96 1.1033,-104.599 -42.7788,-92.0204 z "/>
<path style="fill-opacity:.314" id="svg_89" d="m 326.2219,145.0806 c -0.401978,-0.00058 -0.810303,0.019989 -1.21796,0.03038 15.7967,12.7074 22.4822,42.1135 14.4026,83.0107 -10.7407,54.3667 -52.2039,77.8208 -65.9838,79.0592 4.47449,6.34799 59.4088,-7.90362 80.234,-67.752 19.7784,-56.84 5.76904,-94.2997 -27.4349,-94.3483 z "/>
<path style="fill:#784421;stroke:#000" id="svg_85" d="m 63.1425,148.3964 c 46.8786,16.8271 -13.8006,91.569 36.8502,156.785 9.36218,12.0544 -56.3854,2.0336 -79.629,-64.7647 -22.604,-64.96 -1.10336,-104.599 42.7788,-92.0204 z "/>
<path style="fill-opacity:.314" id="svg_90" d="m 17.7867,177.7216 c -3.36334,16.0546 -1.26526,37.6154 7.58189,63.0407 23.2436,66.7984 88.9873,76.8277 79.625,64.7732 -4.00363,-5.15491 -7.3277,-10.3827 -10.0483,-15.6234 -18.466,-4.41727 -52.6631,-23.7098 -68.1152,-68.1168 -5.72891,-16.4639 -8.62706,-31.3007 -9.04346,-44.0737 z  m 69.455,6.1703 c -0.860229,8.30272 -1.80866,17.1304 -2.22281,26.3835 0.967865,-9.523 2.02615,-18.4233 2.22281,-26.3835 z "/>
<g style="stroke:#000;stroke-linejoin:round;fill:#fff;stroke-linecap:round">
<path id="svg_87" d="m 70.6343,134.4821 c -13.0457,-4.48302 -26.5236,7.37653 -29.1,13.7923 13.1661,-3.3579 19.2144,-4.30479 22.6235,-1.34296 -1.46814,3.27922 -16.9622,6.5576 -21.765,28.0819 12.1104,-8.38107 21.7321,-18.0678 25.5993,-14.0872 -2.80776,4.89625 -6.04066,14.1011 -3.86201,23.228 6.95851,-9.16679 14.0688,-18.8487 20.5999,-19.1107"/>
<path id="svg_88" d="m 303.5342,136.4821 c 13.0457,-4.483 26.5236,7.37654 29.1,13.7923 -13.1661,-3.35791 -19.2144,-4.30478 -22.6235,-1.34296 1.46817,3.27925 16.9622,6.5576 21.7651,28.0819 -12.1104,-8.38107 -21.7321,-18.0678 -25.5993,-14.0872 2.80774,4.89627 6.04068,14.1011 3.86203,23.228 -6.95853,-9.16679 -14.0688,-18.8487 -20.5999,-19.1107"/>
</g>
</g>
</g>
</g>
</g>
</svg>
